<svg width="25" height="25" viewBox="0 0 25 25" fill="none" xmlns="http://www.w3.org/2000/svg">
<g clip-path="url(#clip0_152_4943)">
<path d="M21.8082 2.20328H19.6905V4.32092C19.6905 4.74445 19.3376 5.02681 18.9846 5.02681C18.6317 5.02681 18.2788 4.74445 18.2788 4.32092V2.20328H6.98464V4.32092C6.98464 4.74445 6.6317 5.02681 6.27876 5.02681C5.92582 5.02681 5.57288 4.74445 5.57288 4.32092V2.20328H3.45523C2.3964 2.20328 1.61993 3.12092 1.61993 4.32092V6.8621H24.2082V4.32092C24.2082 3.12092 22.9376 2.20328 21.8082 2.20328ZM1.61993 8.34445V21.2621C1.61993 22.5327 2.3964 23.3797 3.52582 23.3797H21.8788C23.0082 23.3797 24.2788 22.4621 24.2788 21.2621V8.34445H1.61993ZM7.90229 20.2033H6.20817C5.92582 20.2033 5.64346 19.9915 5.64346 19.6386V17.8739C5.64346 17.5915 5.85523 17.3092 6.20817 17.3092H7.97288C8.25523 17.3092 8.53758 17.5209 8.53758 17.8739V19.6386C8.46699 19.9915 8.25523 20.2033 7.90229 20.2033ZM7.90229 13.8503H6.20817C5.92582 13.8503 5.64346 13.6386 5.64346 13.2856V11.5209C5.64346 11.2386 5.85523 10.9562 6.20817 10.9562H7.97288C8.25523 10.9562 8.53758 11.168 8.53758 11.5209V13.2856C8.46699 13.6386 8.25523 13.8503 7.90229 13.8503ZM13.5493 20.2033H11.7846C11.5023 20.2033 11.2199 19.9915 11.2199 19.6386V17.8739C11.2199 17.5915 11.4317 17.3092 11.7846 17.3092H13.5493C13.8317 17.3092 14.1141 17.5209 14.1141 17.8739V19.6386C14.1141 19.9915 13.9023 20.2033 13.5493 20.2033ZM13.5493 13.8503H11.7846C11.5023 13.8503 11.2199 13.6386 11.2199 13.2856V11.5209C11.2199 11.2386 11.4317 10.9562 11.7846 10.9562H13.5493C13.8317 10.9562 14.1141 11.168 14.1141 11.5209V13.2856C14.1141 13.6386 13.9023 13.8503 13.5493 13.8503ZM19.1964 20.2033H17.4317C17.1493 20.2033 16.867 19.9915 16.867 19.6386V17.8739C16.867 17.5915 17.0788 17.3092 17.4317 17.3092H19.1964C19.4788 17.3092 19.7611 17.5209 19.7611 17.8739V19.6386C19.7611 19.9915 19.5493 20.2033 19.1964 20.2033ZM19.1964 13.8503H17.4317C17.1493 13.8503 16.867 13.6386 16.867 13.2856V11.5209C16.867 11.2386 17.0788 10.9562 17.4317 10.9562H19.1964C19.4788 10.9562 19.7611 11.168 19.7611 11.5209V13.2856C19.7611 13.6386 19.5493 13.8503 19.1964 13.8503Z" fill="#055C87"/>
</g>
<defs>
<clipPath id="clip0_152_4943">
<rect width="24" height="24" fill="white" transform="translate(0.914062 0.791504)"/>
</clipPath>
</defs>
</svg>
