<svg width="39" height="38" viewBox="0 0 39 38" fill="none" xmlns="http://www.w3.org/2000/svg">
<g clip-path="url(#clip0_144_427)">
<path d="M0.920461 13.0487C0.768638 9.3956 3.83673 6.62252 6.18998 6.04638C7.35396 5.76148 8.50528 5.72349 9.62497 6.22999C10.4157 6.58454 10.9724 7.16068 11.2444 7.99007C11.9023 9.95908 12.5729 11.9218 13.2055 13.8971C13.5597 14.9924 13.3067 15.9801 12.4906 16.8031C11.9023 17.3983 11.3203 17.9871 10.7257 18.5695C10.5865 18.7088 10.5549 18.8228 10.6498 19.0064C12.5855 23.0141 15.5524 25.9961 19.5567 27.9461C19.7338 28.0347 19.8351 28.0094 19.9679 27.8764C20.4234 27.4079 20.9041 26.9647 21.3533 26.4899C22.1693 25.6225 23.1562 25.3693 24.2949 25.6478C26.4204 26.1733 28.5459 26.7178 30.6651 27.2433C32.0568 27.5915 32.7463 28.5729 32.9994 29.9024C33.3346 31.6752 32.7906 33.239 31.7595 34.6572C30.7473 36.05 29.3746 37.0187 27.7868 37.6329C26.7557 38.0317 25.636 38.0444 24.5352 37.9368C21.5114 37.6392 18.8292 36.4109 16.3115 34.8028C11.0357 31.4409 6.74034 27.0977 3.59001 21.6655C2.50195 19.7851 1.67958 17.7908 1.26206 15.6445C1.09759 14.7898 1.03433 13.9161 0.920461 13.0487Z" fill="white"/>
<path d="M38.9142 20.4372C38.8383 20.8361 38.8193 21.2602 38.6738 21.6275C38.3575 22.4379 37.4529 22.9064 36.6558 22.7481C35.7386 22.5645 35.0807 21.8301 35.068 20.9184C35.0554 19.2849 34.8403 17.6831 34.3785 16.113C33.5371 13.2259 32.0379 10.7314 29.8871 8.63579C27.5275 6.33755 24.7314 4.83705 21.5052 4.14695C20.3349 3.90003 19.1582 3.78607 17.9626 3.77341C16.9315 3.76075 16.1028 2.93136 16.0902 1.92469C16.0712 0.867377 16.9189 0 18.0069 0C20.1957 0.00633122 22.3339 0.322892 24.4088 1.01933C30.1844 2.97567 34.3785 6.73009 36.9721 12.2572C38.1867 14.8404 38.7624 17.5818 38.9142 20.4372Z" fill="white"/>
<path d="M18.3046 7.58483C23.1566 7.8824 26.9268 10.0224 29.4572 14.22C30.6845 16.2523 31.2411 18.4872 31.2664 20.8551C31.2791 21.8174 30.6085 22.5898 29.6533 22.7608C28.8246 22.9064 27.9327 22.3936 27.6164 21.5515C27.5278 21.3109 27.4898 21.0387 27.4835 20.7791C27.4203 16.5562 24.6179 12.8904 20.5629 11.7381C19.7089 11.4975 18.8296 11.3962 17.944 11.3772C17.2292 11.3646 16.6725 11.0164 16.3309 10.3769C15.9766 9.72479 16.0146 9.07267 16.4131 8.45854C16.8496 7.78743 17.5075 7.54052 18.3046 7.58483Z" fill="white"/>
</g>
<defs>
<clipPath id="clip0_144_427">
<rect width="38" height="38" fill="white" transform="translate(0.914062)"/>
</clipPath>
</defs>
</svg>
