<svg width="52" height="52" viewBox="0 0 52 52" fill="none" xmlns="http://www.w3.org/2000/svg">
<path d="M46.5468 25.0913H51.9152C51.9152 11.3213 41.5193 0.936035 27.7305 0.936035V6.30446C38.6337 6.30446 46.5468 14.2041 46.5468 25.0913Z" fill="#0A4B70"/>
<path d="M27.757 17.0413C33.4019 17.0413 35.8096 19.4491 35.8096 25.094H41.178C41.178 16.4374 36.4135 11.6729 27.757 11.6729V17.0413ZM36.9423 31.6515C36.4265 31.1827 35.7488 30.9327 35.0521 30.9542C34.3555 30.9758 33.6944 31.2672 33.2086 31.7669L26.7853 38.3728C25.2392 38.0775 22.1308 37.1085 18.9313 33.917C15.7317 30.7147 14.7627 27.5983 14.4755 26.063L21.0759 19.637C21.5763 19.1515 21.8682 18.4903 21.8897 17.7935C21.9112 17.0966 21.6608 16.4187 21.1914 15.9032L11.2732 4.99727C10.8036 4.48018 10.1509 4.16652 9.45371 4.12291C8.75655 4.07931 8.06985 4.3092 7.53946 4.76375L1.71472 9.75907C1.25064 10.2248 0.973656 10.8447 0.936293 11.5011C0.89603 12.1722 0.128345 28.0681 12.4543 40.3994C23.2072 51.1496 36.6766 51.9361 40.3862 51.9361C40.9284 51.9361 41.2612 51.92 41.3498 51.9146C42.0061 51.8779 42.6257 51.5997 43.0892 51.1335L48.0818 45.3061C48.5367 44.776 48.767 44.0895 48.7239 43.3924C48.6808 42.6952 48.3677 42.0424 47.851 41.5724L36.9423 31.6515Z" fill="#0A4B70"/>
</svg>
