<svg width="21" height="20" viewBox="0 0 21 20" fill="none" xmlns="http://www.w3.org/2000/svg">
<path d="M7.16406 10.625L9.66406 13.125L15.2891 7.5" stroke="#0077B5" stroke-width="2" stroke-linecap="round" stroke-linejoin="round"/>
<mask id="path-2-inside-1_144_589" fill="white">
<path d="M3.84299 2.92893C5.59396 1.17796 7.93231 0.138918 10.4053 0.0129479C12.8784 -0.113022 15.3102 0.683043 17.23 2.24703C19.1499 3.81102 20.4211 6.03169 20.7977 8.47912C21.1743 10.9266 20.6295 13.4267 19.2687 15.4955C17.9079 17.5643 15.8279 19.0546 13.4314 19.678C11.0349 20.3013 8.49231 20.0133 6.29594 18.8698C4.09956 17.7262 2.40559 15.8084 1.54196 13.4877C0.678334 11.1669 0.706477 8.60824 1.62094 6.30704L3.2937 6.97178C2.54384 8.85876 2.52077 10.9569 3.22894 12.8599C3.93712 14.7629 5.32617 16.3355 7.1272 17.2732C8.92822 18.2109 11.0131 18.4471 12.9782 17.9359C14.9434 17.4248 16.649 16.2027 17.7648 14.5063C18.8807 12.8099 19.3275 10.7598 19.0187 8.75288C18.7099 6.74598 17.6674 4.92504 16.0932 3.64257C14.5189 2.3601 12.5248 1.70732 10.4969 1.81062C8.46903 1.91391 6.55158 2.76593 5.11579 4.20173L3.84299 2.92893Z"/>
</mask>
<path d="M3.84299 2.92893C5.59396 1.17796 7.93231 0.138918 10.4053 0.0129479C12.8784 -0.113022 15.3102 0.683043 17.23 2.24703C19.1499 3.81102 20.4211 6.03169 20.7977 8.47912C21.1743 10.9266 20.6295 13.4267 19.2687 15.4955C17.9079 17.5643 15.8279 19.0546 13.4314 19.678C11.0349 20.3013 8.49231 20.0133 6.29594 18.8698C4.09956 17.7262 2.40559 15.8084 1.54196 13.4877C0.678334 11.1669 0.706477 8.60824 1.62094 6.30704L3.2937 6.97178C2.54384 8.85876 2.52077 10.9569 3.22894 12.8599C3.93712 14.7629 5.32617 16.3355 7.1272 17.2732C8.92822 18.2109 11.0131 18.4471 12.9782 17.9359C14.9434 17.4248 16.649 16.2027 17.7648 14.5063C18.8807 12.8099 19.3275 10.7598 19.0187 8.75288C18.7099 6.74598 17.6674 4.92504 16.0932 3.64257C14.5189 2.3601 12.5248 1.70732 10.4969 1.81062C8.46903 1.91391 6.55158 2.76593 5.11579 4.20173L3.84299 2.92893Z" fill="#0077B5" stroke="#0077B5" stroke-width="2" mask="url(#path-2-inside-1_144_589)"/>
</svg>
