<svg width="15" height="15" viewBox="0 0 15 15" fill="none" xmlns="http://www.w3.org/2000/svg">
<path d="M10.5391 7.75C10.5391 8.35156 10.5117 8.9349 10.457 9.5H5.37109C5.31641 8.9349 5.28906 8.35156 5.28906 7.75C5.28906 7.14844 5.31641 6.5651 5.37109 6H10.457C10.5117 6.5651 10.5391 7.14844 10.5391 7.75ZM11.332 6H14.6953C14.8411 6.5651 14.9141 7.14844 14.9141 7.75C14.9141 8.35156 14.8411 8.9349 14.6953 9.5H11.332C11.3867 8.9349 11.4141 8.35156 11.4141 7.75C11.4141 7.14844 11.3867 6.5651 11.332 6ZM14.3945 5.125H11.2227C10.931 3.33854 10.4206 1.95312 9.69141 0.96875C10.7852 1.27865 11.7422 1.78906 12.5625 2.5C13.3646 3.22917 13.9753 4.10417 14.3945 5.125ZM10.3203 5.125H5.50781C5.67188 4.1224 5.91797 3.25651 6.24609 2.52734C6.53776 1.88932 6.83854 1.42448 7.14844 1.13281C7.45833 0.859375 7.71354 0.731771 7.91406 0.75C8.11458 0.731771 8.36979 0.859375 8.67969 1.13281C8.98958 1.42448 9.29036 1.88932 9.58203 2.52734C9.91016 3.25651 10.1562 4.1224 10.3203 5.125ZM4.60547 5.125H1.43359C1.85286 4.10417 2.46354 3.22917 3.26562 2.5C4.08594 1.78906 5.04297 1.27865 6.13672 0.96875C5.40755 1.95312 4.89714 3.33854 4.60547 5.125ZM1.13281 6H4.49609C4.44141 6.5651 4.41406 7.14844 4.41406 7.75C4.41406 8.35156 4.44141 8.9349 4.49609 9.5H1.13281C0.986979 8.9349 0.914062 8.35156 0.914062 7.75C0.914062 7.14844 0.986979 6.5651 1.13281 6ZM6.24609 12.9727C5.91797 12.2435 5.67188 11.3776 5.50781 10.375H10.3203C10.1562 11.3776 9.91016 12.2435 9.58203 12.9727C9.29036 13.6107 8.98958 14.0755 8.67969 14.3672C8.36979 14.6406 8.11458 14.7682 7.91406 14.75C7.71354 14.7682 7.45833 14.6406 7.14844 14.3672C6.83854 14.0755 6.53776 13.6107 6.24609 12.9727ZM4.60547 10.375C4.89714 12.1615 5.40755 13.5469 6.13672 14.5312C5.04297 14.2214 4.08594 13.7109 3.26562 13C2.46354 12.2708 1.85286 11.3958 1.43359 10.375H4.60547ZM14.3945 10.375C13.9753 11.3958 13.3646 12.2708 12.5625 13C11.7422 13.7109 10.7943 14.2214 9.71875 14.5312C10.4297 13.5469 10.931 12.1615 11.2227 10.375H14.3945Z" fill="white"/>
</svg>
