<svg width="48" height="36" viewBox="0 0 48 36" fill="none" xmlns="http://www.w3.org/2000/svg">
<path d="M39.6029 0H7.92057C3.56426 0 0 3.56426 0 7.92057V27.722C0 32.0783 3.56426 35.6426 7.92057 35.6426H39.6029C43.9592 35.6426 47.5234 32.0783 47.5234 27.722V7.92057C47.5234 3.56426 43.9592 0 39.6029 0ZM42.7711 11.4848L27.128 21.9796C26.1379 22.5736 24.9498 22.9697 23.7617 22.9697C22.5736 22.9697 21.3855 22.5736 20.3955 21.9796L4.75234 11.4848C3.96029 10.8908 3.76227 9.7027 4.35631 8.71263C4.95036 7.92057 6.13844 7.72256 7.12851 8.3166L22.7716 18.8114C23.3657 19.2074 24.3558 19.2074 24.9498 18.8114L40.5929 8.3166C41.583 7.72256 42.7711 7.92057 43.3651 8.91064C43.7612 9.7027 43.5631 10.8908 42.7711 11.4848Z" fill="white"/>
</svg>
