<svg width="13" height="9" viewBox="0 0 13 9" fill="none" xmlns="http://www.w3.org/2000/svg">
<path d="M10.9141 0H2.91406C1.81406 0 0.914062 0.9 0.914062 2V7C0.914062 8.1 1.81406 9 2.91406 9H10.9141C12.0141 9 12.9141 8.1 12.9141 7V2C12.9141 0.9 12.0141 0 10.9141 0ZM11.7141 2.9L7.76406 5.55C7.51406 5.7 7.21406 5.8 6.91406 5.8C6.61406 5.8 6.31406 5.7 6.06406 5.55L2.11406 2.9C1.91406 2.75 1.86406 2.45 2.01406 2.2C2.16406 2 2.46406 1.95 2.71406 2.1L6.66406 4.75C6.81406 4.85 7.06406 4.85 7.21406 4.75L11.1641 2.1C11.4141 1.95 11.7141 2 11.8641 2.25C11.9641 2.45 11.9141 2.75 11.7141 2.9Z" fill="#07304A"/>
</svg>
