<svg width="12" height="20" viewBox="0 0 12 20" fill="none" xmlns="http://www.w3.org/2000/svg">
<path d="M8.51379 9.93893C8.39672 9.85384 8.28473 9.80067 8.20329 9.71558C5.93813 7.35983 3.67807 4.99343 1.418 2.63236C1.07187 2.27607 0.868257 1.86661 0.924249 1.35079C0.990422 0.749881 1.29584 0.308509 1.85067 0.101118C2.41569 -0.111592 2.92471 0.016034 3.35229 0.446771C3.86641 0.962591 4.36525 1.49968 4.86918 2.02082C7.05289 4.30213 9.2366 6.57812 11.4152 8.86474C12.0871 9.572 12.0871 10.4335 11.4101 11.1407C8.74285 13.9272 6.07557 16.7137 3.40828 19.5055C2.9807 19.9522 2.47677 20.1171 1.89648 19.915C1.32638 19.7182 1.00569 19.2822 0.929339 18.6706C0.863166 18.1601 1.06169 17.74 1.40782 17.3838C2.73637 16.0011 4.05983 14.6132 5.3833 13.2306C6.34026 12.2309 7.30231 11.2258 8.25928 10.2261C8.32036 10.157 8.37635 10.0931 8.51379 9.93893Z" fill="white"/>
</svg>
