<svg width="45" height="53" viewBox="0 0 45 53" fill="none" xmlns="http://www.w3.org/2000/svg">
<path d="M38.2304 6.45982C29.6938 -1.93745 15.8532 -1.93745 7.31654 6.45982C-1.2201 14.8598 -1.2201 28.4763 7.31654 36.8736L22.7721 52.0805L38.2304 36.8736C46.767 28.4763 46.767 14.8598 38.2304 6.45982ZM22.7721 28.8534C20.9467 28.8534 19.2334 28.143 17.9409 26.8532C15.2766 24.1889 15.2766 19.855 17.9409 17.1907C19.2307 15.9009 20.9467 15.1905 22.7721 15.1905C24.5975 15.1905 26.3136 15.9009 27.6033 17.1907C30.2676 19.855 30.2676 24.1916 27.6033 26.8532C26.3136 28.143 24.5975 28.8534 22.7721 28.8534Z" fill="#0A4B70"/>
</svg>
