<svg width="101" height="117" viewBox="0 0 101 117" fill="none" xmlns="http://www.w3.org/2000/svg">
<path d="M14.5 94.5L0.914062 32H100.914L88 94.5L52 117L14.5 94.5Z" fill="#04AF70"/>
<mask id="mask0_1_44" style="mask-type:luminance" maskUnits="userSpaceOnUse" x="14" y="0" width="74" height="94">
<path d="M17.9467 0.5H84.0533C85.9547 0.5 87.5 2.04912 87.5 3.96492V90.0351C87.5 91.9509 85.9547 93.5 84.0533 93.5H17.9467C16.0453 93.5 14.5 91.9509 14.5 90.0351V3.96492C14.5 2.04912 16.0453 0.5 17.9467 0.5Z" fill="white" stroke="white"/>
</mask>
<g mask="url(#mask0_1_44)">
<path d="M88.5 0V-0.5H88H14H13.5V0V94V94.5H14H88H88.5V94V0Z" fill="#C4E7DA" stroke="#04AF70"/>
</g>
<path d="M25.5625 66.5909C25.0767 66.5909 24.6591 66.5284 24.3097 66.4034C23.9602 66.2812 23.669 66.1193 23.4361 65.9176C23.206 65.7188 23.0227 65.5057 22.8864 65.2784L23.6875 64.7159C23.7784 64.8352 23.8935 64.9716 24.0327 65.125C24.1719 65.2812 24.3622 65.4162 24.6037 65.5298C24.848 65.6463 25.1676 65.7045 25.5625 65.7045C26.0909 65.7045 26.527 65.5767 26.8707 65.321C27.2145 65.0653 27.3864 64.6648 27.3864 64.1193V62.7898H27.3011C27.2273 62.9091 27.1222 63.0568 26.9858 63.233C26.8523 63.4062 26.6591 63.5611 26.4062 63.6974C26.1562 63.831 25.8182 63.8977 25.392 63.8977C24.8636 63.8977 24.3892 63.7727 23.9688 63.5227C23.5511 63.2727 23.2202 62.9091 22.9759 62.4318C22.7344 61.9545 22.6136 61.375 22.6136 60.6932C22.6136 60.0227 22.7315 59.4389 22.9673 58.9418C23.2031 58.4418 23.5313 58.0554 23.9517 57.7827C24.3722 57.5071 24.858 57.3693 25.4091 57.3693C25.8352 57.3693 26.1733 57.4403 26.4233 57.5824C26.6761 57.7216 26.8693 57.8807 27.0028 58.0597C27.1392 58.2358 27.2443 58.3807 27.3182 58.4943H27.4205V57.4545H28.392V64.1875C28.392 64.75 28.2642 65.2074 28.0085 65.5597C27.7557 65.9148 27.4148 66.1747 26.9858 66.3395C26.5597 66.5071 26.0852 66.5909 25.5625 66.5909ZM25.5284 62.9943C25.9318 62.9943 26.2727 62.902 26.5511 62.7173C26.8295 62.5327 27.0412 62.267 27.1861 61.9205C27.331 61.5739 27.4034 61.1591 27.4034 60.6761C27.4034 60.2045 27.3324 59.7884 27.1903 59.4276C27.0483 59.0668 26.8381 58.7841 26.5597 58.5795C26.2813 58.375 25.9375 58.2727 25.5284 58.2727C25.1023 58.2727 24.7472 58.3807 24.4631 58.5966C24.1818 58.8125 23.9702 59.1023 23.8281 59.4659C23.6889 59.8295 23.6193 60.233 23.6193 60.6761C23.6193 61.1307 23.6903 61.5327 23.8324 61.8821C23.9773 62.2287 24.1903 62.5014 24.4716 62.7003C24.7557 62.8963 25.108 62.9943 25.5284 62.9943ZM30.233 64V57.4545H31.2045V58.4432H31.2727C31.392 58.1193 31.608 57.8565 31.9205 57.6548C32.233 57.4531 32.5852 57.3523 32.9773 57.3523C33.0511 57.3523 33.1435 57.3537 33.2543 57.3565C33.3651 57.3594 33.4489 57.3636 33.5057 57.3693V58.392C33.4716 58.3835 33.3935 58.3707 33.2713 58.3537C33.152 58.3338 33.0256 58.3239 32.892 58.3239C32.5739 58.3239 32.2898 58.3906 32.0398 58.5241C31.7926 58.6548 31.5966 58.8366 31.4517 59.0696C31.3097 59.2997 31.2386 59.5625 31.2386 59.858V64H30.233ZM37.2429 64.1364C36.6122 64.1364 36.0682 63.9972 35.6108 63.7188C35.1562 63.4375 34.8054 63.0455 34.5582 62.5426C34.3139 62.0369 34.1918 61.4489 34.1918 60.7784C34.1918 60.108 34.3139 59.517 34.5582 59.0057C34.8054 58.4915 35.1491 58.0909 35.5895 57.804C36.0327 57.5142 36.5497 57.3693 37.1406 57.3693C37.4815 57.3693 37.8182 57.4261 38.1506 57.5398C38.483 57.6534 38.7855 57.8381 39.0582 58.0938C39.331 58.3466 39.5483 58.6818 39.7102 59.0994C39.8722 59.517 39.9531 60.0312 39.9531 60.642V61.0682H34.9077V60.1989H38.9304C38.9304 59.8295 38.8565 59.5 38.7088 59.2102C38.5639 58.9205 38.3565 58.6918 38.0866 58.5241C37.8196 58.3565 37.5043 58.2727 37.1406 58.2727C36.7401 58.2727 36.3935 58.3722 36.1009 58.571C35.8111 58.767 35.5881 59.0227 35.4318 59.3381C35.2756 59.6534 35.1974 59.9915 35.1974 60.3523V60.9318C35.1974 61.4261 35.2827 61.8452 35.4531 62.1889C35.6264 62.5298 35.8665 62.7898 36.1733 62.9688C36.4801 63.1449 36.8366 63.233 37.2429 63.233C37.5071 63.233 37.7457 63.196 37.9588 63.1222C38.1747 63.0455 38.3608 62.9318 38.517 62.7812C38.6733 62.6278 38.794 62.4375 38.8793 62.2102L39.8509 62.483C39.7486 62.8125 39.5767 63.1023 39.3352 63.3523C39.0938 63.5994 38.7955 63.7926 38.4403 63.9318C38.0852 64.0682 37.6861 64.1364 37.2429 64.1364ZM44.2273 64.1364C43.5966 64.1364 43.0526 63.9972 42.5952 63.7188C42.1406 63.4375 41.7898 63.0455 41.5426 62.5426C41.2983 62.0369 41.1761 61.4489 41.1761 60.7784C41.1761 60.108 41.2983 59.517 41.5426 59.0057C41.7898 58.4915 42.1335 58.0909 42.5739 57.804C43.017 57.5142 43.5341 57.3693 44.125 57.3693C44.4659 57.3693 44.8026 57.4261 45.1349 57.5398C45.4673 57.6534 45.7699 57.8381 46.0426 58.0938C46.3153 58.3466 46.5327 58.6818 46.6946 59.0994C46.8565 59.517 46.9375 60.0312 46.9375 60.642V61.0682H41.892V60.1989H45.9148C45.9148 59.8295 45.8409 59.5 45.6932 59.2102C45.5483 58.9205 45.3409 58.6918 45.071 58.5241C44.804 58.3565 44.4886 58.2727 44.125 58.2727C43.7244 58.2727 43.3778 58.3722 43.0852 58.571C42.7955 58.767 42.5724 59.0227 42.4162 59.3381C42.2599 59.6534 42.1818 59.9915 42.1818 60.3523V60.9318C42.1818 61.4261 42.267 61.8452 42.4375 62.1889C42.6108 62.5298 42.8509 62.7898 43.1577 62.9688C43.4645 63.1449 43.821 63.233 44.2273 63.233C44.4915 63.233 44.7301 63.196 44.9432 63.1222C45.1591 63.0455 45.3452 62.9318 45.5014 62.7812C45.6577 62.6278 45.7784 62.4375 45.8636 62.2102L46.8352 62.483C46.733 62.8125 46.5611 63.1023 46.3196 63.3523C46.0781 63.5994 45.7798 63.7926 45.4247 63.9318C45.0696 64.0682 44.6705 64.1364 44.2273 64.1364ZM49.473 60.0625V64H48.4673V57.4545H49.4389V58.4773H49.5241C49.6776 58.1449 49.9105 57.8778 50.223 57.6761C50.5355 57.4716 50.9389 57.3693 51.4332 57.3693C51.8764 57.3693 52.2642 57.4602 52.5966 57.642C52.929 57.821 53.1875 58.0938 53.3722 58.4602C53.5568 58.8239 53.6491 59.2841 53.6491 59.8409V64H52.6435V59.9091C52.6435 59.3949 52.5099 58.9943 52.2429 58.7074C51.9759 58.4176 51.6094 58.2727 51.1435 58.2727C50.8224 58.2727 50.5355 58.3423 50.2827 58.4815C50.0327 58.6207 49.8352 58.8239 49.6903 59.0909C49.5455 59.358 49.473 59.6818 49.473 60.0625ZM56.9698 64L54.9755 57.4545H56.0323L57.4471 62.4659H57.5153L58.913 57.4545H59.9869L61.3675 62.4489H61.4357L62.8505 57.4545H63.9073L61.913 64H60.9244L59.4925 58.9716H59.3903L57.9585 64H56.9698ZM67.7585 64.1364C67.1278 64.1364 66.5838 63.9972 66.1264 63.7188C65.6719 63.4375 65.321 63.0455 65.0739 62.5426C64.8295 62.0369 64.7074 61.4489 64.7074 60.7784C64.7074 60.108 64.8295 59.517 65.0739 59.0057C65.321 58.4915 65.6648 58.0909 66.1051 57.804C66.5483 57.5142 67.0653 57.3693 67.6562 57.3693C67.9972 57.3693 68.3338 57.4261 68.6662 57.5398C68.9986 57.6534 69.3011 57.8381 69.5739 58.0938C69.8466 58.3466 70.0639 58.6818 70.2259 59.0994C70.3878 59.517 70.4688 60.0312 70.4688 60.642V61.0682H65.4233V60.1989H69.446C69.446 59.8295 69.3722 59.5 69.2244 59.2102C69.0795 58.9205 68.8722 58.6918 68.6023 58.5241C68.3352 58.3565 68.0199 58.2727 67.6562 58.2727C67.2557 58.2727 66.9091 58.3722 66.6165 58.571C66.3267 58.767 66.1037 59.0227 65.9474 59.3381C65.7912 59.6534 65.7131 59.9915 65.7131 60.3523V60.9318C65.7131 61.4261 65.7983 61.8452 65.9688 62.1889C66.142 62.5298 66.3821 62.7898 66.6889 62.9688C66.9957 63.1449 67.3523 63.233 67.7585 63.233C68.0227 63.233 68.2614 63.196 68.4744 63.1222C68.6903 63.0455 68.8764 62.9318 69.0327 62.7812C69.1889 62.6278 69.3097 62.4375 69.3949 62.2102L70.3665 62.483C70.2642 62.8125 70.0923 63.1023 69.8509 63.3523C69.6094 63.5994 69.3111 63.7926 68.956 63.9318C68.6009 64.0682 68.2017 64.1364 67.7585 64.1364ZM72.1349 64V55.2727H73.1406V58.4943H73.2259C73.2997 58.3807 73.402 58.2358 73.5327 58.0597C73.6662 57.8807 73.8565 57.7216 74.1037 57.5824C74.3537 57.4403 74.6918 57.3693 75.1179 57.3693C75.669 57.3693 76.1548 57.5071 76.5753 57.7827C76.9957 58.0582 77.3239 58.4489 77.5597 58.9545C77.7955 59.4602 77.9134 60.0568 77.9134 60.7443C77.9134 61.4375 77.7955 62.0384 77.5597 62.5469C77.3239 63.0526 76.9972 63.4446 76.5795 63.723C76.1619 63.9986 75.6804 64.1364 75.1349 64.1364C74.7145 64.1364 74.3778 64.0668 74.125 63.9276C73.8722 63.7855 73.6776 63.625 73.5412 63.446C73.4048 63.2642 73.2997 63.1136 73.2259 62.9943H73.1065V64H72.1349ZM73.1236 60.7273C73.1236 61.2216 73.196 61.6577 73.3409 62.0355C73.4858 62.4105 73.6974 62.7045 73.9759 62.9176C74.2543 63.1278 74.5952 63.233 74.9986 63.233C75.419 63.233 75.7699 63.1222 76.0511 62.9006C76.3352 62.6761 76.5483 62.375 76.6903 61.9972C76.8352 61.6165 76.9077 61.1932 76.9077 60.7273C76.9077 60.267 76.8366 59.8523 76.6946 59.483C76.5554 59.1108 76.3438 58.8168 76.0597 58.6009C75.7784 58.3821 75.4247 58.2727 74.9986 58.2727C74.5895 58.2727 74.2457 58.3764 73.9673 58.5838C73.6889 58.7884 73.4787 59.0753 73.3366 59.4446C73.1946 59.8111 73.1236 60.2386 73.1236 60.7273Z" fill="#04AF70"/>
<a href="https://github.com/arijit2024/greenweb">
<rect fill="black" fill-opacity="0" y="0.238636" width="56.527" height="14.5227"/>
</a>
</svg>
