<svg width="49" height="36" viewBox="0 0 49 36" fill="none" xmlns="http://www.w3.org/2000/svg">
<path d="M40.1185 0H8.4362C4.07988 0 0.515625 3.56426 0.515625 7.92057V27.722C0.515625 32.0783 4.07988 35.6426 8.4362 35.6426H40.1185C44.4748 35.6426 48.039 32.0783 48.039 27.722V7.92057C48.039 3.56426 44.4748 0 40.1185 0ZM43.2867 11.4848L27.6436 21.9796C26.6535 22.5736 25.4654 22.9697 24.2773 22.9697C23.0893 22.9697 21.9012 22.5736 20.9111 21.9796L5.26797 11.4848C4.47591 10.8908 4.2779 9.7027 4.87194 8.71263C5.46598 7.92057 6.65407 7.72256 7.64414 8.3166L23.2873 18.8114C23.8813 19.2074 24.8714 19.2074 25.4654 18.8114L41.1085 8.3166C42.0986 7.72256 43.2867 7.92057 43.8807 8.91064C44.2768 9.7027 44.0788 10.8908 43.2867 11.4848Z" fill="#0A4B70"/>
</svg>
