<svg width="13" height="13" viewBox="0 0 13 13" fill="none" xmlns="http://www.w3.org/2000/svg">
<path d="M11.3335 5.99933H12.6669C12.6669 2.57933 10.0849 0 6.66019 0V1.33333C9.36819 1.33333 11.3335 3.29533 11.3335 5.99933Z" fill="#07304A"/>
<path d="M6.66685 4C8.06886 4 8.66685 4.598 8.66685 6H10.0002C10.0002 3.85 8.81685 2.66667 6.66685 2.66667V4ZM8.94819 7.62867C8.82009 7.51223 8.65175 7.45014 8.47873 7.45549C8.3057 7.46084 8.14152 7.53321 8.02085 7.65733L6.42552 9.298C6.04152 9.22467 5.26952 8.984 4.47485 8.19133C3.68019 7.396 3.43952 6.622 3.36819 6.24067L5.00752 4.64467C5.1318 4.52409 5.20428 4.35988 5.20963 4.1868C5.21498 4.01373 5.15278 3.84536 5.03619 3.71733L2.57285 1.00867C2.45622 0.880238 2.29411 0.802336 2.12096 0.791506C1.94781 0.780676 1.77725 0.837772 1.64552 0.950666L0.198855 2.19133C0.0835955 2.30701 0.014801 2.46097 0.0055213 2.624C-0.0044787 2.79067 -0.195145 6.73867 2.86619 9.80133C5.53685 12.4713 8.88219 12.6667 9.80352 12.6667C9.93819 12.6667 10.0209 12.6627 10.0429 12.6613C10.2059 12.6522 10.3597 12.5831 10.4749 12.4673L11.7149 11.02C11.8278 10.8884 11.885 10.7178 11.8743 10.5447C11.8636 10.3716 11.7859 10.2094 11.6575 10.0927L8.94819 7.62867Z" fill="#07304A"/>
</svg>
