<svg width="12" height="20" viewBox="0 0 12 20" fill="none" xmlns="http://www.w3.org/2000/svg">
<path d="M4.31433 9.93893C4.43141 9.85384 4.5434 9.80067 4.62484 9.71558C6.88999 7.35983 9.15006 4.99343 11.4101 2.63236C11.7563 2.27607 11.9599 1.86661 11.9039 1.35079C11.8377 0.749881 11.5323 0.308509 10.9775 0.101118C10.4124 -0.111592 9.90341 0.016034 9.47583 0.446771C8.96172 0.962591 8.46288 1.49968 7.95894 2.02082C5.77523 4.30213 3.59152 6.57812 1.4129 8.86474C0.740989 9.572 0.740989 10.4335 1.41799 11.1407C4.08527 13.9272 6.75256 16.7137 9.41984 19.5055C9.84742 19.9522 10.3514 20.1171 10.9316 19.915C11.5017 19.7182 11.8224 19.2822 11.8988 18.6706C11.965 18.1601 11.7664 17.74 11.4203 17.3838C10.0918 16.0011 8.76829 14.6132 7.44483 13.2306C6.48787 12.2309 5.52581 11.2258 4.56885 10.2261C4.50776 10.157 4.45177 10.0931 4.31433 9.93893Z" fill="white"/>
</svg>
