<svg width="58" height="53" viewBox="0 0 58 53" fill="none" xmlns="http://www.w3.org/2000/svg">
<g clip-path="url(#clip0_144_327)">
<path d="M53.6567 37.5169C54.6357 37.5169 55.5407 37.5077 56.4458 37.5169C57.4247 37.526 57.905 38.0207 57.905 38.9919C57.905 39.8897 57.9142 40.7967 57.905 41.6946C57.8957 42.4458 57.554 42.7848 56.7967 42.7848C56.1226 42.7939 55.4484 42.7848 54.6911 42.7848C54.6911 43.0047 54.6911 43.1787 54.6911 43.3528C54.6911 46.1288 54.6911 48.9139 54.6911 51.6899C54.6911 52.7343 54.4417 53 53.3889 53C45.8622 53 38.3355 53 30.8087 53C22.5247 53 14.2499 53 5.96589 53C5.66112 53 5.34712 53.0092 5.04236 52.9817C4.43283 52.9359 4.11883 52.6152 4.10036 52.0105C4.08189 51.2776 4.09113 50.5447 4.09113 49.8118C4.09113 47.6313 4.08189 45.4417 4.10036 43.2612C4.10036 42.8764 3.98954 42.7573 3.60166 42.7756C3.03831 42.8031 2.46572 42.7939 1.89314 42.7848C1.27438 42.7756 0.914201 42.4366 0.904966 41.8137C0.886496 40.7417 0.886496 39.679 0.904966 38.6071C0.914201 37.9658 1.29285 37.6451 1.99473 37.636C3.81407 37.6268 5.62418 37.6176 7.44353 37.6451C7.83141 37.6451 8.04382 37.5443 8.24699 37.2054C9.29981 35.4555 10.7497 34.2095 12.8092 33.7606C13.1232 33.6965 13.4464 33.6598 13.7697 33.6598C16.3094 33.6506 18.8491 33.6232 21.3888 33.6598C23.3836 33.6873 24.9166 34.7042 26.2003 36.1334C26.5236 36.4999 26.8006 36.903 27.0684 37.3153C27.2162 37.5535 27.3824 37.6451 27.6595 37.636C28.2598 37.6176 28.8509 37.6268 29.5158 37.6268C29.5158 37.1687 29.5158 36.7564 29.5158 36.3533C29.4696 32.2764 32.388 29.8577 35.1585 29.1798C35.3802 29.1248 35.6111 29.0423 35.8327 29.0423C36.5992 29.0698 37.218 28.6942 37.846 28.3461C38.3724 28.0529 38.4647 27.1276 37.9845 26.7428C36.7839 25.79 35.9343 24.599 35.5926 23.0965C35.4818 22.6201 35.4356 22.1345 35.4264 21.6489C35.3986 20.4396 35.4171 19.2394 35.4171 18.0301C35.4171 16.7566 35.8974 15.6939 36.8486 14.8235C37.0056 14.6769 37.0979 14.4112 37.1256 14.1914C37.2919 12.3682 38.631 10.6641 40.3395 10.1328C42.2604 9.53725 44.3568 10.4076 45.3727 12.3041C45.696 12.9087 45.8068 13.6233 46.0377 14.283C46.1023 14.4754 46.1762 14.6952 46.324 14.8235C47.2659 15.6939 47.7554 16.7566 47.7462 18.0301C47.7369 19.5234 47.7739 21.0259 47.6631 22.5101C47.5338 24.0951 46.7303 25.396 45.5112 26.4221C44.8833 26.9443 44.9571 27.888 45.6498 28.2728C46.2316 28.5934 46.8227 28.8133 47.4968 28.9324C51.0801 29.5646 53.629 32.6245 53.6567 36.2342C53.6567 36.6557 53.6567 37.0496 53.6567 37.5169ZM52.7979 50.9844C52.8071 50.8745 52.8256 50.7829 52.8256 50.6913C52.8256 48.1169 52.8163 45.5333 52.8348 42.9589C52.8348 42.5649 52.6316 42.5557 52.3453 42.5557C44.5508 42.5557 36.747 42.5649 28.9524 42.5466C28.5553 42.5466 28.463 42.684 28.463 43.0505C28.4814 45.5333 28.4722 48.0252 28.4722 50.508C28.4722 50.6546 28.4907 50.8012 28.4999 50.9753C36.6085 50.9844 44.6893 50.9844 52.7979 50.9844ZM45.9545 21.3832C46.1115 20.7419 45.9545 20.1006 45.068 19.8349C45.0403 19.8258 45.0125 19.8074 44.9941 19.7799C44.4123 19.0653 43.8397 19.0562 43.0454 19.5876C42.1404 20.1922 41.0322 20.1739 39.9609 20.1647C39.102 20.1647 38.28 20.3296 37.5135 20.7144C37.3842 20.7786 37.2272 20.9526 37.2272 21.0626C37.2457 21.6947 37.2272 22.3544 37.3842 22.9682C37.9383 25.112 40.2102 26.5687 42.3066 26.1839C44.5415 25.79 45.9453 23.9851 45.9545 21.3832ZM5.87353 46.7518C5.87353 48.0161 5.892 49.2804 5.8643 50.5447C5.85506 50.9295 5.98436 51.0303 6.363 51.0303C6.71394 51.0303 6.84324 50.9386 6.84324 50.5722C6.82476 48.0619 6.834 45.5424 6.84324 43.0322C6.84324 42.684 6.74165 42.5557 6.37224 42.5557C5.99359 42.5557 5.8643 42.6657 5.87353 43.0505C5.88277 44.2781 5.87353 45.5149 5.87353 46.7518ZM43.3687 27.8055C42.2235 27.8055 41.1522 27.8055 39.9978 27.8055C40.164 29.0515 41.143 29.8486 41.6971 30.9846C42.2697 30.0868 42.7961 29.308 43.2763 28.4927C43.3871 28.2911 43.341 27.9979 43.3687 27.8055ZM43.8304 33.3025C44.283 32.2031 44.6985 31.1862 45.1049 30.1692C45.0772 30.1143 45.0495 30.0685 45.0218 30.0135C44.7724 30.0501 44.3938 29.986 44.2922 30.1234C43.7473 30.8747 43.2763 31.6717 42.7591 32.478C43.1193 32.7528 43.4426 33.0002 43.8304 33.3025ZM38.2985 30.0776C38.7141 31.0854 39.1297 32.1023 39.573 33.1834C39.9147 32.8811 40.201 32.6337 40.515 32.368C40.0347 31.6259 39.5545 30.9205 39.1297 30.1876C38.8988 29.7753 38.6679 29.7844 38.2985 30.0776ZM51.9944 35.4097C51.9297 35.4005 51.8743 35.3914 51.8097 35.3822C51.3202 35.7945 51.0893 36.3533 50.9878 36.9763C50.8769 37.6634 50.8862 37.6726 51.5881 37.6268C51.7266 37.6176 51.9667 37.4802 51.9759 37.3978C52.0036 36.7381 51.9944 36.0785 51.9944 35.4097ZM32.3418 37.5443C32.2217 36.7748 32.0093 36.051 31.3721 35.4738C31.2982 35.9319 31.2982 36.3808 31.2982 36.8297C31.2982 37.7276 31.3259 37.7459 32.231 37.6176C32.2494 37.6085 32.2587 37.5993 32.3418 37.5443Z" fill="#0077B5"/>
<path d="M14.2499 0C16.7157 0 19.1723 0 21.6381 0C24.4733 0 26.3296 1.83232 26.3388 4.62662C26.3481 6.68799 26.3481 8.74935 26.3388 10.8107C26.3296 13.4584 24.5564 15.2266 21.8782 15.2449C19.7079 15.2633 17.5376 15.2633 15.3674 15.2358C14.9795 15.2358 14.7948 15.364 14.6562 15.7122C14.2961 16.6009 13.899 17.4804 13.5111 18.3599C13.0863 19.331 12.4305 19.5051 11.5994 18.8638C10.3434 17.9018 9.07815 16.9582 7.84063 15.9779C7.24957 15.5106 6.63081 15.2633 5.87352 15.2175C4.13729 15.0984 2.77047 13.9348 2.35489 12.2674C2.27177 11.9193 2.24406 11.5436 2.24406 11.1772C2.23483 8.95091 2.22559 6.72463 2.24406 4.4892C2.26253 1.74987 4.0357 0 6.78781 0C9.26286 0 11.7564 0 14.2499 0ZM14.2037 6.22074C16.0969 6.22074 17.9902 6.22074 19.8834 6.22074C20.0496 6.22074 20.2251 6.2299 20.3913 6.21158C20.8993 6.14745 21.241 5.78098 21.2502 5.29542C21.2595 4.80069 20.9455 4.44339 20.4283 4.36093C20.262 4.33345 20.0958 4.33345 19.9203 4.33345C16.1062 4.33345 12.292 4.33345 8.47786 4.33345C8.32086 4.33345 8.1731 4.33345 8.0161 4.36093C7.39734 4.46171 7.06487 4.99309 7.24957 5.57943C7.36963 5.9917 7.74827 6.22074 8.30239 6.22074C10.2603 6.22074 12.2274 6.22074 14.2037 6.22074ZM14.2314 9.73881C16.1339 9.73881 18.0456 9.73881 19.948 9.73881C20.1512 9.73881 20.3544 9.73881 20.5391 9.693C20.9732 9.58306 21.2133 9.28073 21.2317 8.83181C21.241 8.38289 21.0378 8.06223 20.6038 7.93397C20.4006 7.86984 20.1789 7.86984 19.9665 7.86984C16.1339 7.86984 12.3105 7.86984 8.47786 7.86984C8.31163 7.86984 8.13616 7.86067 7.96992 7.88816C7.47122 7.97061 7.16645 8.36456 7.19416 8.86845C7.22187 9.42731 7.60975 9.74797 8.32086 9.74797C10.2972 9.73881 12.2643 9.73881 14.2314 9.73881Z" fill="#0077B5"/>
<path d="M17.5931 32.3497C14.2869 32.3497 11.5533 29.6562 11.5625 26.3855C11.5718 23.0965 14.2685 20.4304 17.5839 20.4213C20.8901 20.4121 23.6238 23.1148 23.6238 26.3855C23.6145 29.6654 20.9086 32.3406 17.5931 32.3497Z" fill="#0077B5"/>
</g>
<defs>
<clipPath id="clip0_144_327">
<rect width="57" height="53" fill="white" transform="translate(0.914062)"/>
</clipPath>
</defs>
</svg>
