<svg width="25" height="24" viewBox="0 0 25 24" fill="none" xmlns="http://www.w3.org/2000/svg">
<path d="M23.7656 22.7344C24.0781 23.0781 24.0781 23.4219 23.7656 23.7656C23.6094 23.9219 23.4375 24 23.25 24C23.0625 24 22.875 23.9219 22.6875 23.7656L16.0312 17.1562C14.2812 18.6562 12.1719 19.4375 9.70312 19.5C6.95312 19.4375 4.67188 18.4844 2.85938 16.6406C1.01563 14.7969 0.0625 12.5 0 9.75C0.0625 7 1 4.70312 2.8125 2.85938C4.65625 1.01563 6.95312 0.0625 9.70312 0C12.4531 0.0625 14.75 1.01563 16.5938 2.85938C18.4375 4.70312 19.3906 7 19.4531 9.75C19.4219 12.2188 18.6562 14.3281 17.1562 16.0781L23.7656 22.7344ZM9.75 18C12.0938 17.9375 14.0312 17.1406 15.5625 15.6094C17.125 14.0469 17.9375 12.0938 18 9.75C17.9375 7.40625 17.1406 5.45312 15.6094 3.89062C14.0469 2.35937 12.0938 1.5625 9.75 1.5C7.40625 1.5625 5.45312 2.375 3.89062 3.9375C2.35938 5.46875 1.5625 7.40625 1.5 9.75C1.5625 12.0938 2.35938 14.0312 3.89062 15.5625C5.45312 17.125 7.40625 17.9375 9.75 18Z" fill="white"/>
</svg>
